<?xml version="1.0" standalone="no"?>
<!DOCTYPE svg PUBLIC "-//W3C//DTD SVG 20010904//EN"
 "http://www.w3.org/TR/2001/REC-SVG-20010904/DTD/svg10.dtd">
<svg version="1.0" xmlns="http://www.w3.org/2000/svg"
 width="1024.000000pt" height="1024.000000pt" viewBox="0 0 1024.000000 1024.000000"
 preserveAspectRatio="xMidYMid meet">
<metadata>
Created by potrace 1.16, written by Peter Selinger 2001-2019
</metadata>
<g transform="translate(0.000000,1024.000000) scale(0.100000,-0.100000)"
fill="#000000" stroke="none">
<path d="M4906 7179 c-202 -17 -429 -75 -603 -154 l-72 -33 40 -89 c22 -48 46
-94 53 -101 9 -9 30 -4 101 28 107 47 280 93 436 116 160 23 460 16 614 -15
131 -27 271 -71 372 -116 l73 -34 50 99 c28 55 50 102 50 105 0 9 -107 53
-229 94 -289 97 -558 127 -885 100z"/>
<path d="M4930 6890 c-187 -20 -421 -87 -605 -174 -520 -246 -905 -820 -966
-1441 -51 -518 143 -1050 520 -1426 257 -256 572 -419 936 -485 139 -25 471
-26 605 -1 488 90 870 328 1146 714 137 192 248 452 300 703 18 85 29 349 19
473 l-7 97 -599 0 -598 0 -26 27 c-14 15 -25 33 -25 39 0 7 78 47 173 90 94
42 287 134 427 204 140 69 306 149 368 179 74 35 110 56 105 64 -131 224 -338
461 -523 599 -210 157 -479 272 -748 318 -131 23 -380 33 -502 20z m394 -505
c221 -33 401 -113 591 -261 109 -85 251 -236 240 -254 -7 -11 -149 -90 -162
-90 -6 0 -50 41 -99 90 -48 50 -121 113 -161 141 -144 100 -325 169 -479 185
l-64 7 0 -702 0 -701 564 0 564 0 12 -30 c18 -43 7 -89 -44 -194 -69 -141
-141 -242 -251 -351 -183 -184 -421 -312 -670 -361 -123 -24 -357 -25 -480 0
-177 34 -379 123 -520 228 -99 73 -235 215 -300 312 -58 87 -133 246 -159 338
-92 315 -63 642 83 943 189 390 529 646 936 704 98 14 293 12 399 -4z"/>
<path d="M4852 6175 c-368 -95 -666 -398 -769 -782 -24 -89 -27 -115 -27 -283
-1 -161 2 -197 22 -275 31 -124 115 -291 199 -395 150 -186 336 -308 569 -372
68 -18 105 -21 269 -21 175 0 198 2 290 26 120 32 276 107 365 175 83 63 177
160 247 253 l54 74 -516 5 -517 5 -25 29 -25 29 7 778 6 779 -28 0 c-15 -1
-70 -12 -121 -25z"/>
<path d="M3285 5861 l-79 -6 -40 -115 c-70 -207 -87 -314 -93 -575 -7 -315 19
-498 107 -750 37 -105 142 -318 207 -419 160 -247 383 -472 627 -631 170 -111
453 -227 658 -271 196 -41 500 -56 693 -34 474 55 934 285 1257 629 147 158
250 308 348 506 103 210 166 414 195 634 15 109 20 402 9 485 l-7 47 -111 -3
-111 -3 5 -70 c17 -243 -6 -497 -64 -696 -30 -104 -121 -315 -175 -407 -223
-382 -586 -676 -1002 -813 -66 -21 -177 -51 -247 -66 -115 -24 -147 -27 -342
-27 -197 0 -226 2 -343 27 -188 40 -334 90 -487 168 -502 256 -858 730 -970
1294 -15 75 -24 163 -27 276 -8 257 18 435 102 688 25 73 45 135 45 137 0 4
-36 3 -155 -5z"/>
</g>
</svg>
