<?xml version="1.0" standalone="no"?>
<!DOCTYPE svg PUBLIC "-//W3C//DTD SVG 20010904//EN"
 "http://www.w3.org/TR/2001/REC-SVG-20010904/DTD/svg10.dtd">
<svg version="1.0" xmlns="http://www.w3.org/2000/svg"
 width="100.000000pt" height="100.000000pt" viewBox="0 0 100.000000 100.000000"
 preserveAspectRatio="xMidYMid meet">
<metadata>
Created by potrace 1.16, written by Peter Selinger 2001-2019
</metadata>
<g transform="translate(0.000000,100.000000) scale(0.022779,-0.021368)"
fill="#000000" stroke="none">
<path d="M1880 4384 c-86 -11 -259 -47 -334 -71 -71 -22 -274 -100 -285 -109
-6 -5 69 -167 84 -183 11 -11 26 -8 97 22 297 128 714 168 1053 101 159 -31
239 -57 432 -141 11 -4 103 162 103 187 0 24 -295 127 -477 167 -107 23 -143
25 -378 28 -143 2 -276 1 -295 -1z"/>
<path d="M1866 4084 c-125 -19 -261 -58 -406 -115 -228 -89 -366 -182 -555
-373 -150 -151 -234 -269 -329 -461 -157 -315 -219 -613 -195 -944 36 -507
303 -988 724 -1303 174 -131 470 -259 695 -303 211 -40 492 -38 709 6 219 44
477 155 658 282 133 94 344 309 432 441 135 203 250 484 288 704 18 104 25
436 10 505 l-8 37 -598 0 -597 0 -27 28 c-45 47 -60 36 200 153 84 38 250 117
370 177 120 60 274 135 343 167 69 32 129 61 134 66 4 4 -34 69 -85 146 -139
205 -340 407 -524 525 -202 131 -465 229 -705 263 -131 18 -413 18 -534 -1z
m478 -485 c224 -30 459 -140 652 -307 77 -67 184 -186 184 -206 0 -16 -139
-96 -167 -96 -14 0 -42 23 -80 66 -110 125 -291 244 -458 301 -58 19 -213 53
-246 53 -5 0 -9 -310 -9 -700 l0 -700 564 0 564 0 6 -22 c12 -48 5 -96 -27
-169 -161 -368 -477 -631 -886 -736 -96 -25 -123 -27 -291 -28 -255 0 -375 27
-590 135 -495 248 -766 795 -670 1354 24 143 56 240 121 370 178 355 501 609
861 677 141 26 309 29 472 8z"/>
<path d="M1930 3395 c-208 -42 -385 -140 -541 -302 -128 -132 -194 -237 -253
-403 -102 -284 -81 -616 55 -870 82 -151 212 -297 349 -390 407 -276 993 -225
1346 116 60 59 194 221 194 236 0 5 -230 8 -510 8 l-511 0 -24 25 -25 24 0
786 c0 432 -3 785 -7 784 -5 0 -37 -7 -73 -14z"/>
<path d="M226 3043 c-45 -89 -106 -326 -126 -493 -22 -184 -5 -511 35 -689 49
-215 166 -485 290 -671 267 -400 627 -679 1062 -823 329 -110 731 -134 1067
-66 232 47 525 167 721 296 314 207 572 507 735 855 54 115 124 329 149 453
37 185 51 416 34 588 l-6 67 -107 0 -108 0 5 -182 c10 -330 -43 -582 -182
-872 -208 -435 -607 -785 -1060 -929 -237 -76 -366 -97 -601 -97 -616 -1
-1176 300 -1520 815 -307 461 -388 1019 -229 1569 14 48 36 113 49 146 l25 60
-109 0 c-109 0 -110 0 -124 -27z"/>
</g>
</svg>
